<svg xmlns="http://www.w3.org/2000/svg" width="800" height="1000" viewBox="0 0 800 1000">
  <!-- Title -->
  <text x="50" y="50" font-size="36" font-weight="bold">PROJECTS</text>

  <!-- First Row -->
  <!-- First Project Card -->
  <rect x="50" y="100" width="300" height="200" stroke="black" fill="none"/>
  <text x="70" y="130" font-size="16" font-weight="bold">Lorem ipsum dolor sit amet</text>
  <text x="70" y="150" font-size="14">(YEAR)</text>
  <text x="70" y="180" font-size="12">Lorem ipsum dolor sit amet, consectetur</text>
  <text x="70" y="200" font-size="12">adipiscing elit. In at imperdiet ex.</text>
  <!-- Buttons -->
  <rect x="70" y="220" width="50" height="20" stroke="black" fill="none"/>
  <text x="85" y="235" font-size="12">Lorem</text>
  <rect x="130" y="220" width="50" height="20" stroke="black" fill="none"/>
  <text x="145" y="235" font-size="12">Ipsum</text>
  <rect x="190" y="220" width="50" height="20" stroke="black" fill="none"/>
  <text x="205" y="235" font-size="12">Dolor</text>

  <!-- Second Project Card -->
  <rect x="400" y="100" width="300" height="200" stroke="black" fill="none"/>
  <text x="420" y="130" font-size="16" font-weight="bold">Lorem ipsum dolor sit amet</text>
  <text x="420" y="150" font-size="14">(YEAR)</text>
  <text x="420" y="180" font-size="12">Lorem ipsum dolor sit amet, consectetur</text>
  <text x="420" y="200" font-size="12">adipiscing elit. In at imperdiet ex.</text>
  <!-- Buttons -->
  <rect x="420" y="220" width="50" height="20" stroke="black" fill="none"/>
  <text x="435" y="235" font-size="12">Lorem</text>
  <rect x="480" y="220" width="50" height="20" stroke="black" fill="none"/>
  <text x="495" y="235" font-size="12">Ipsum</text>
  <rect x="540" y="220" width="50" height="20" stroke="black" fill="none"/>
  <text x="555" y="235" font-size="12">Dolor</text>

  <!-- Second Row -->
  <!-- Third Project Card -->
  <rect x="50" y="350" width="300" height="200" stroke="black" fill="none"/>
  <text x="70" y="380" font-size="16" font-weight="bold">Lorem ipsum dolor sit amet</text>
  <text x="70" y="400" font-size="14">(YEAR)</text>
  <text x="70" y="430" font-size="12">Lorem ipsum dolor sit amet, consectetur</text>
  <text x="70" y="450" font-size="12">adipiscing elit. In at imperdiet ex.</text>
  <!-- Buttons -->
  <rect x="70" y="470" width="50" height="20" stroke="black" fill="none"/>
  <text x="85" y="485" font-size="12">Lorem</text>
  <rect x="130" y="470" width="50" height="20" stroke="black" fill="none"/>
  <text x="145" y="485" font-size="12">Ipsum</text>
  <rect x="190" y="470" width="50" height="20" stroke="black" fill="none"/>
  <text x="205" y="485" font-size="12">Dolor</text>

  <!-- Fourth Project Card -->
  <rect x="400" y="350" width="300" height="200" stroke="black" fill="none"/>
  <text x="420" y="380" font-size="16" font-weight="bold">Lorem ipsum dolor sit amet</text>
  <text x="420" y="400" font-size="14">(YEAR)</text>
  <text x="420" y="430" font-size="12">Lorem ipsum dolor sit amet, consectetur</text>
  <text x="420" y="450" font-size="12">adipiscing elit. In at imperdiet ex.</text>
  <!-- Buttons -->
  <rect x="420" y="470" width="50" height="20" stroke="black" fill="none"/>
  <text x="435" y="485" font-size="12">Lorem</text>
  <rect x="480" y="470" width="50" height="20" stroke="black" fill="none"/>
  <text x="495" y="485" font-size="12">Ipsum</text>
  <rect x="540" y="470" width="50" height="20" stroke="black" fill="none"/>
  <text x="555" y="485" font-size="12">Dolor</text>

  <!-- Form -->
  <rect x="50" y="600" width="650" height="300" stroke="black" fill="none"/>
  <text x="70" y="630" font-size="14">Lorem:</text>
  <rect x="150" y="615" width="300" height="25" stroke="black" fill="none"/>
  <text x="70" y="670" font-size="14">Ipsum:</text>
  <rect x="150" y="655" width="300" height="50" stroke="black" fill="none"/>
  <text x="70" y="740" font-size="14">Dolor:</text>
  <rect x="150" y="725" width="300" height="25" stroke="black" fill="none"/>
  <text x="70" y="780" font-size="14">Sit:</text>
  <rect x="150" y="765" width="300" height="25" stroke="black" fill="none"/>
  <!-- Submit button -->
  <rect x="150" y="820" width="100" height="30" stroke="black" fill="none"/>
  <text x="180" y="840" font-size="14">Submit</text>
</svg>
